<svg version="1.2" baseProfile="tiny-ps" xmlns="http://www.w3.org/2000/svg" viewBox="0 0 1224 1584" width="1224" height="1584">
	<title>logo-ai</title>
	<style>
		tspan { white-space:pre }
		.shp0 { fill: #39b54a } 
	</style>
	<g id="Layer 1">
		<g id="&lt;Group&gt;">
			<g id="&lt;Group&gt;">
				<path id="&lt;Path&gt;" class="shp0" d="M574.47 1194.1C587.52 1209.04 594.94 1222.4 593.93 1246.17C593.29 1260.81 580.93 1279.7 578.45 1283.33L569.23 1296.87L558.14 1284.8C505.2 1227.1 453.65 1163.26 400.55 1089.57C322.2 980.84 209.93 770.98 338.38 587.32C405.88 490.61 506.01 423.37 594.59 367.92L609.69 358.46L614.06 375.73C617.04 387.53 625.26 427.17 605.61 442.62C596.28 449.85 584.58 457.38 571.03 466.11C524.61 496.01 454.44 541.21 398.12 628.54C319.25 750.87 355.71 870.76 410.29 969.15C404.19 738.34 601.32 619.1 610.37 613.75L625.97 604.54L629.76 622.22C630.7 626.71 638.49 666.63 622.92 689.76C620.66 693.16 616.65 696.69 609.44 703.05C573.3 734.91 463.34 831.88 487.35 1014.6C495.18 1074.41 525.3 1136.47 574.47 1194.1Z" />
				<path id="&lt;Path&gt;" class="shp0" d="M885.67 997.22C818.35 1093.96 718.34 1161.51 629.89 1217.21L614.83 1226.69L610.39 1209.47C607.34 1197.62 598.92 1157.8 618.66 1142.48C627.89 1135.33 639.53 1127.8 653.01 1119.07C699.44 1089.04 769.61 1043.67 825.8 956.16C904.37 833.83 867.64 713.99 812.84 615.57C819.79 851.64 615.42 970.31 613.19 971.58L597.73 980.33L594.09 962.93C593.15 958.47 585.38 918.65 600.75 895.39C602.99 891.99 606.96 888.46 614.17 882.07C650.23 850.14 759.98 752.95 735.68 570.27C727.72 510.42 697.41 448.48 648.03 391.1C634.94 375.91 627.55 362.52 628.48 339.01C629.05 324.42 641.33 305.37 643.79 301.7L652.95 288L664.12 300.12C716.98 357.34 768.7 421.08 822.23 495.02C900.88 603.55 1013.71 813.16 885.67 997.22Z" />
			</g>
		</g>
	</g>
</svg>